<svg xmlns="http://www.w3.org/2000/svg" width="1920" height="368.881" viewBox="0 0 1920 368.881">
  <g id="Group_255" data-name="Group 255" transform="translate(0 -6226.119)">
    <rect id="Rectangle_5" data-name="Rectangle 5" width="1920" height="212.881" transform="translate(0 6226.119)" fill="#e19ea6"/>
    <ellipse id="Ellipse_1" data-name="Ellipse 1" cx="106" cy="90" rx="106" ry="90" transform="translate(245 6385)" fill="#e19ea6" opacity="0.8"/>
    <ellipse id="Ellipse_7" data-name="Ellipse 7" cx="106" cy="90" rx="106" ry="90" transform="translate(232 6399)" fill="#e19ea6"/>
    <ellipse id="Ellipse_8" data-name="Ellipse 8" cx="106" cy="90" rx="106" ry="90" transform="translate(1006 6301)" fill="#e19ea6"/>
    <ellipse id="Ellipse_9" data-name="Ellipse 9" cx="106" cy="90" rx="106" ry="90" transform="translate(1708 6338)" fill="#e19ea6"/>
    <ellipse id="Ellipse_31" data-name="Ellipse 31" cx="80" cy="68" rx="80" ry="68" transform="translate(0 6375)" fill="#e19ea6"/>
    <ellipse id="Ellipse_32" data-name="Ellipse 32" cx="106" cy="90" rx="106" ry="90" transform="translate(444 6415)" fill="#e19ea6"/>
    <ellipse id="Ellipse_18" data-name="Ellipse 18" cx="106" cy="90" rx="106" ry="90" transform="translate(1469 6354)" fill="#e19ea6"/>
    <ellipse id="Ellipse_24" data-name="Ellipse 24" cx="106" cy="90" rx="106" ry="90" transform="translate(1295 6391)" fill="#e19ea6"/>
    <ellipse id="Ellipse_34" data-name="Ellipse 34" cx="106" cy="90" rx="106" ry="90" transform="translate(670 6310)" fill="#e19ea6"/>
    <ellipse id="Ellipse_19" data-name="Ellipse 19" cx="67.5" cy="57.5" rx="67.5" ry="57.5" transform="translate(1507 6328)" fill="#e19ea6"/>
    <ellipse id="Ellipse_28" data-name="Ellipse 28" cx="67.5" cy="57.5" rx="67.5" ry="57.5" transform="translate(174 6351)" fill="#e19ea6"/>
    <ellipse id="Ellipse_29" data-name="Ellipse 29" cx="67.5" cy="57.5" rx="67.5" ry="57.5" transform="translate(97 6390)" fill="#e19ea6"/>
    <ellipse id="Ellipse_21" data-name="Ellipse 21" cx="67.5" cy="57.5" rx="67.5" ry="57.5" transform="translate(1440 6360)" fill="#e19ea6"/>
    <ellipse id="Ellipse_22" data-name="Ellipse 22" cx="67.5" cy="57.5" rx="67.5" ry="57.5" transform="translate(1635 6374)" fill="#e19ea6"/>
    <ellipse id="Ellipse_23" data-name="Ellipse 23" cx="67.5" cy="57.5" rx="67.5" ry="57.5" transform="translate(1223 6348)" fill="#e19ea6"/>
    <ellipse id="Ellipse_20" data-name="Ellipse 20" cx="106" cy="90" rx="106" ry="90" transform="translate(1112 6336)" fill="#e19ea6"/>
    <ellipse id="Ellipse_10" data-name="Ellipse 10" cx="106" cy="90" rx="106" ry="90" transform="translate(542 6354)" fill="#e19ea6"/>
    <ellipse id="Ellipse_11" data-name="Ellipse 11" cx="84.5" cy="71.5" rx="84.5" ry="71.5" transform="translate(861 6373)" fill="#e19ea6"/>
    <ellipse id="Ellipse_12" data-name="Ellipse 12" cx="84.5" cy="71.5" rx="84.5" ry="71.5" transform="translate(670 6310)" fill="#e19ea6"/>
    <ellipse id="Ellipse_33" data-name="Ellipse 33" cx="84.5" cy="71.5" rx="84.5" ry="71.5" transform="translate(147 6372)" fill="#e19ea6" opacity="0.8"/>
    <ellipse id="Ellipse_35" data-name="Ellipse 35" cx="84.5" cy="71.5" rx="84.5" ry="71.5" transform="translate(684 6385)" fill="#e19ea6" opacity="0.8"/>
    <ellipse id="Ellipse_36" data-name="Ellipse 36" cx="84.5" cy="71.5" rx="84.5" ry="71.5" transform="translate(1034 6364)" fill="#e19ea6" opacity="0.8"/>
    <ellipse id="Ellipse_37" data-name="Ellipse 37" cx="84.5" cy="71.5" rx="84.5" ry="71.5" transform="translate(1642 6360)" fill="#e19ea6" opacity="0.8"/>
    <ellipse id="Ellipse_13" data-name="Ellipse 13" cx="84.5" cy="71.5" rx="84.5" ry="71.5" transform="translate(777 6399)" fill="#e19ea6"/>
    <ellipse id="Ellipse_14" data-name="Ellipse 14" cx="54" cy="45.5" rx="54" ry="45.5" transform="translate(980 6414.248)" fill="#e19ea6"/>
    <ellipse id="Ellipse_15" data-name="Ellipse 15" cx="54" cy="45.5" rx="54" ry="45.5" transform="translate(479 6390)" fill="#e19ea6" opacity="0.8"/>
    <ellipse id="Ellipse_16" data-name="Ellipse 16" cx="36.5" cy="31" rx="36.5" ry="31" transform="translate(131 6426.2)" fill="#e19ea6"/>
    <ellipse id="Ellipse_26" data-name="Ellipse 26" cx="36.5" cy="31" rx="36.5" ry="31" transform="translate(789 6440.44)" fill="#e19ea6"/>
    <ellipse id="Ellipse_27" data-name="Ellipse 27" cx="36.5" cy="31" rx="36.5" ry="31" transform="translate(1322 6437.702)" fill="#e19ea6"/>
    <ellipse id="Ellipse_17" data-name="Ellipse 17" cx="54" cy="45.5" rx="54" ry="45.5" transform="translate(403 6408)" fill="#e19ea6"/>
    <ellipse id="Ellipse_5" data-name="Ellipse 5" cx="106" cy="90" rx="106" ry="90" transform="translate(1430 6309)" fill="#e19ea6" opacity="0.8"/>
    <ellipse id="Ellipse_6" data-name="Ellipse 6" cx="53" cy="45" rx="53" ry="45" transform="translate(1700 6354)" fill="#e19ea6" opacity="0.8"/>
    <ellipse id="Ellipse_2" data-name="Ellipse 2" cx="106" cy="90" rx="106" ry="90" transform="translate(794 6363)" fill="#e19ea6" opacity="0.8"/>
    <ellipse id="Ellipse_3" data-name="Ellipse 3" cx="106" cy="90" rx="106" ry="90" transform="translate(1028 6283)" fill="#e19ea6" opacity="0.8"/>
    <circle id="Ellipse_4" data-name="Ellipse 4" cx="53" cy="53" r="53" transform="translate(927 6338)" fill="#e19ea6" opacity="0.8"/>
  </g>
</svg>
