<svg xmlns="http://www.w3.org/2000/svg" width="2071" height="312" viewBox="0 0 2071 312">
  <g id="Group_5" data-name="Group 5" transform="translate(73 -1097)">
    <ellipse id="Ellipse_1" data-name="Ellipse 1" cx="106" cy="90" rx="106" ry="90" transform="translate(225 1199)" fill="#e19ea6" opacity="0.8"/>
    <ellipse id="Ellipse_7" data-name="Ellipse 7" cx="106" cy="90" rx="106" ry="90" transform="translate(212 1213)" fill="#e19ea6"/>
    <ellipse id="Ellipse_8" data-name="Ellipse 8" cx="106" cy="90" rx="106" ry="90" transform="translate(986 1115)" fill="#e19ea6"/>
    <ellipse id="Ellipse_9" data-name="Ellipse 9" cx="106" cy="90" rx="106" ry="90" transform="translate(1708 1123)" fill="#e19ea6"/>
    <ellipse id="Ellipse_30" data-name="Ellipse 30" cx="106" cy="90" rx="106" ry="90" transform="translate(1786 1142)" fill="#e19ea6"/>
    <ellipse id="Ellipse_31" data-name="Ellipse 31" cx="106" cy="90" rx="106" ry="90" transform="translate(-73 1114)" fill="#e19ea6"/>
    <ellipse id="Ellipse_32" data-name="Ellipse 32" cx="106" cy="90" rx="106" ry="90" transform="translate(424 1229)" fill="#e19ea6"/>
    <ellipse id="Ellipse_18" data-name="Ellipse 18" cx="106" cy="90" rx="106" ry="90" transform="translate(1449 1168)" fill="#e19ea6"/>
    <ellipse id="Ellipse_24" data-name="Ellipse 24" cx="106" cy="90" rx="106" ry="90" transform="translate(1275 1205)" fill="#e19ea6"/>
    <ellipse id="Ellipse_19" data-name="Ellipse 19" cx="67.5" cy="57.5" rx="67.5" ry="57.5" transform="translate(1487 1142)" fill="#e19ea6"/>
    <ellipse id="Ellipse_28" data-name="Ellipse 28" cx="67.5" cy="57.5" rx="67.5" ry="57.5" transform="translate(154 1165)" fill="#e19ea6"/>
    <ellipse id="Ellipse_29" data-name="Ellipse 29" cx="67.5" cy="57.5" rx="67.5" ry="57.5" transform="translate(77 1204)" fill="#e19ea6"/>
    <ellipse id="Ellipse_21" data-name="Ellipse 21" cx="67.5" cy="57.5" rx="67.5" ry="57.5" transform="translate(1420 1174)" fill="#e19ea6"/>
    <ellipse id="Ellipse_22" data-name="Ellipse 22" cx="67.5" cy="57.5" rx="67.5" ry="57.5" transform="translate(1615 1188)" fill="#e19ea6"/>
    <ellipse id="Ellipse_23" data-name="Ellipse 23" cx="67.5" cy="57.5" rx="67.5" ry="57.5" transform="translate(1203 1162)" fill="#e19ea6"/>
    <ellipse id="Ellipse_20" data-name="Ellipse 20" cx="106" cy="90" rx="106" ry="90" transform="translate(1092 1150)" fill="#e19ea6"/>
    <ellipse id="Ellipse_10" data-name="Ellipse 10" cx="106" cy="90" rx="106" ry="90" transform="translate(522 1168)" fill="#e19ea6"/>
    <ellipse id="Ellipse_11" data-name="Ellipse 11" cx="84.5" cy="71.5" rx="84.5" ry="71.5" transform="translate(841 1187)" fill="#e19ea6"/>
    <ellipse id="Ellipse_12" data-name="Ellipse 12" cx="84.5" cy="71.5" rx="84.5" ry="71.5" transform="translate(650 1124)" fill="#e19ea6"/>
    <ellipse id="Ellipse_33" data-name="Ellipse 33" cx="84.5" cy="71.5" rx="84.5" ry="71.5" transform="translate(614 1128)" fill="#e19ea6" opacity="0.8"/>
    <ellipse id="Ellipse_13" data-name="Ellipse 13" cx="84.5" cy="71.5" rx="84.5" ry="71.5" transform="translate(757 1213)" fill="#e19ea6"/>
    <ellipse id="Ellipse_14" data-name="Ellipse 14" cx="54" cy="45.5" rx="54" ry="45.5" transform="translate(960 1150)" fill="#e19ea6"/>
    <ellipse id="Ellipse_15" data-name="Ellipse 15" cx="54" cy="45.5" rx="54" ry="45.5" transform="translate(459 1204)" fill="#e19ea6" opacity="0.8"/>
    <ellipse id="Ellipse_16" data-name="Ellipse 16" cx="36.5" cy="31" rx="36.5" ry="31" transform="translate(111 1152)" fill="#e19ea6"/>
    <ellipse id="Ellipse_25" data-name="Ellipse 25" cx="36.5" cy="31" rx="36.5" ry="31" transform="translate(1847 1112)" fill="#e19ea6"/>
    <ellipse id="Ellipse_26" data-name="Ellipse 26" cx="36.5" cy="31" rx="36.5" ry="31" transform="translate(769 1178)" fill="#e19ea6"/>
    <ellipse id="Ellipse_27" data-name="Ellipse 27" cx="36.5" cy="31" rx="36.5" ry="31" transform="translate(1302 1173)" fill="#e19ea6"/>
    <ellipse id="Ellipse_17" data-name="Ellipse 17" cx="54" cy="45.5" rx="54" ry="45.5" transform="translate(383 1222)" fill="#e19ea6"/>
    <ellipse id="Ellipse_5" data-name="Ellipse 5" cx="106" cy="90" rx="106" ry="90" transform="translate(1410 1123)" fill="#e19ea6" opacity="0.8"/>
    <ellipse id="Ellipse_6" data-name="Ellipse 6" cx="53" cy="45" rx="53" ry="45" transform="translate(1680 1168)" fill="#e19ea6" opacity="0.8"/>
    <ellipse id="Ellipse_2" data-name="Ellipse 2" cx="106" cy="90" rx="106" ry="90" transform="translate(774 1177)" fill="#e19ea6" opacity="0.8"/>
    <ellipse id="Ellipse_3" data-name="Ellipse 3" cx="106" cy="90" rx="106" ry="90" transform="translate(1008 1097)" fill="#e19ea6" opacity="0.8"/>
    <circle id="Ellipse_4" data-name="Ellipse 4" cx="53" cy="53" r="53" transform="translate(907 1152)" fill="#e19ea6" opacity="0.8"/>
  </g>
</svg>
